# 3ds Max Wavefront OBJ Exporter v0.97b - (c)2007 guruware
# File Created: 13.08.2015 15:51:31

mtllib plane3.mtl

#
# object Plane005
#

v  -4.4638 0.1227 5.6007
v  -4.4638 0.1117 5.6007
v  -4.4396 0.1117 5.6007
v  -4.4396 0.1227 5.6007
v  -4.4154 0.1117 5.6007
v  -4.4154 0.1227 5.6007
v  -4.3911 0.1117 5.6007
v  -4.3911 0.1227 5.6007
v  -4.3669 0.1117 5.6007
v  -4.3669 0.1227 5.6007
v  -4.4638 0.1338 5.6007
v  -4.4396 0.1338 5.6007
v  -4.4154 0.1338 5.6007
v  -4.3911 0.1338 5.6007
v  -4.3669 0.1338 5.6007
v  -4.4638 0.1448 5.6007
v  -4.4396 0.1448 5.6007
v  -4.4154 0.1448 5.6007
v  -4.3911 0.1448 5.6007
v  -4.3669 0.1448 5.6007
v  -4.4638 0.1558 5.6007
v  -4.4396 0.1558 5.6007
v  -4.4154 0.1558 5.6007
v  -4.3911 0.1558 5.6007
v  -4.3669 0.1558 5.6007
# 25 vertices

vn 0.0000 -0.0000 1.0000
# 1 vertex normals

vt 0.0000 0.2500 0.0000
vt 0.0000 0.0000 0.0000
vt 0.2500 0.0000 0.0000
vt 0.2500 0.2500 0.0000
vt 0.5000 0.0000 0.0000
vt 0.5000 0.2500 0.0000
vt 0.7500 0.0000 0.0000
vt 0.7500 0.2500 0.0000
vt 1.0000 0.0000 0.0000
vt 1.0000 0.2500 0.0000
vt 0.0000 0.5000 0.0000
vt 0.2500 0.5000 0.0000
vt 0.5000 0.5000 0.0000
vt 0.7500 0.5000 0.0000
vt 1.0000 0.5000 0.0000
vt 0.0000 0.7500 0.0000
vt 0.2500 0.7500 0.0000
vt 0.5000 0.7500 0.0000
vt 0.7500 0.7500 0.0000
vt 1.0000 0.7500 0.0000
vt 0.0000 1.0000 0.0000
vt 0.2500 1.0000 0.0000
vt 0.5000 1.0000 0.0000
vt 0.7500 1.0000 0.0000
vt 1.0000 1.0000 0.0000
# 25 texture coords

g Plane005
usemtl wire_225087143
s 1
f 1/1/1 2/2/1 3/3/1 4/4/1 
f 4/4/1 3/3/1 5/5/1 6/6/1 
f 6/6/1 5/5/1 7/7/1 8/8/1 
f 8/8/1 7/7/1 9/9/1 10/10/1 
f 11/11/1 1/1/1 4/4/1 12/12/1 
f 12/12/1 4/4/1 6/6/1 13/13/1 
f 13/13/1 6/6/1 8/8/1 14/14/1 
f 14/14/1 8/8/1 10/10/1 15/15/1 
f 16/16/1 11/11/1 12/12/1 17/17/1 
f 17/17/1 12/12/1 13/13/1 18/18/1 
f 18/18/1 13/13/1 14/14/1 19/19/1 
f 19/19/1 14/14/1 15/15/1 20/20/1 
f 21/21/1 16/16/1 17/17/1 22/22/1 
f 22/22/1 17/17/1 18/18/1 23/23/1 
f 23/23/1 18/18/1 19/19/1 24/24/1 
f 24/24/1 19/19/1 20/20/1 25/25/1 
# 16 polygons

