# 3ds Max Wavefront OBJ Exporter v0.97b - (c)2007 guruware
# File Created: 13.08.2015 13:11:14

mtllib way2.mtl

#
# object Plane003
#

v  -4.6517 0.1108 5.6131
v  -4.6577 0.1108 5.6233
v  -4.6123 0.1108 5.6494
v  -4.6064 0.1108 5.6391
v  -4.5670 0.1108 5.6755
v  -4.5611 0.1108 5.6652
v  -4.5217 0.1108 5.7016
v  -4.5158 0.1108 5.6913
v  -4.4763 0.1108 5.7276
v  -4.4704 0.1108 5.7173
v  -4.6458 0.1108 5.6028
v  -4.6005 0.1108 5.6289
v  -4.5552 0.1108 5.6549
v  -4.5098 0.1108 5.6810
v  -4.4645 0.1108 5.7071
v  -4.6399 0.1108 5.5925
v  -4.5946 0.1108 5.6186
v  -4.5493 0.1108 5.6447
v  -4.5039 0.1108 5.6707
v  -4.4586 0.1108 5.6968
v  -4.6340 0.1108 5.5822
v  -4.5887 0.1108 5.6083
v  -4.5434 0.1108 5.6344
v  -4.4980 0.1108 5.6605
v  -4.4527 0.1108 5.6865
# 25 vertices

vn 0.0000 1.0000 -0.0000
# 1 vertex normals

vt 0.0000 0.2500 0.0000
vt 0.0000 0.0000 0.0000
vt 0.2500 0.0000 0.0000
vt 0.2500 0.2500 0.0000
vt 0.5000 0.0000 0.0000
vt 0.5000 0.2500 0.0000
vt 0.7500 0.0000 0.0000
vt 0.7500 0.2500 0.0000
vt 1.0000 0.0000 0.0000
vt 1.0000 0.2500 0.0000
vt 0.0000 0.5000 0.0000
vt 0.2500 0.5000 0.0000
vt 0.5000 0.5000 0.0000
vt 0.7500 0.5000 0.0000
vt 1.0000 0.5000 0.0000
vt 0.0000 0.7500 0.0000
vt 0.2500 0.7500 0.0000
vt 0.5000 0.7500 0.0000
vt 0.7500 0.7500 0.0000
vt 1.0000 0.7500 0.0000
vt 0.0000 1.0000 0.0000
vt 0.2500 1.0000 0.0000
vt 0.5000 1.0000 0.0000
vt 0.7500 1.0000 0.0000
vt 1.0000 1.0000 0.0000
# 25 texture coords

g Plane003
usemtl wire_184155229
s 1
f 1/1/1 2/2/1 3/3/1 4/4/1 
f 4/4/1 3/3/1 5/5/1 6/6/1 
f 6/6/1 5/5/1 7/7/1 8/8/1 
f 8/8/1 7/7/1 9/9/1 10/10/1 
f 11/11/1 1/1/1 4/4/1 12/12/1 
f 12/12/1 4/4/1 6/6/1 13/13/1 
f 13/13/1 6/6/1 8/8/1 14/14/1 
f 14/14/1 8/8/1 10/10/1 15/15/1 
f 16/16/1 11/11/1 12/12/1 17/17/1 
f 17/17/1 12/12/1 13/13/1 18/18/1 
f 18/18/1 13/13/1 14/14/1 19/19/1 
f 19/19/1 14/14/1 15/15/1 20/20/1 
f 21/21/1 16/16/1 17/17/1 22/22/1 
f 22/22/1 17/17/1 18/18/1 23/23/1 
f 23/23/1 18/18/1 19/19/1 24/24/1 
f 24/24/1 19/19/1 20/20/1 25/25/1 
# 16 polygons

